<?xml version="1.0" encoding="UTF-8"?><svg id="_レイヤー_2" xmlns="http://www.w3.org/2000/svg" viewBox="0 0 381.43 89.48"><defs><style>.cls-1{fill:#333;font-family:HeiseiMaruGoStd-W4-90ms-RKSJ-H, 'Heisei Maru Gothic Std';font-size:32.39px;}.cls-2{fill:#fff;stroke:#333;stroke-miterlimit:10;}</style></defs><g id="_レイヤー_1-2"><path class="cls-2" d="M380.72,41.31c2.72,12.2-21.52,23.2-43.12,22.49-2.49,17.18-64.31,22.08-81.96,13.08-12.98,9.39-51.8,11.08-66.15,3.86-17.36,10.99-71.16,11.43-82.15-1.41-18.11,5.94-64.17,3.62-61.48-11.29-57.76,4.09-62.2-39.65-2.71-40.17C40.16,8.96,107.67,3.23,125.11,12.59c12.98-9.39,51.8-11.08,66.15-3.86,17.37-10.99,71.16-11.43,82.16,1.41,18.3-5.94,68.82-3.93,60.48,13.56,22.11-2.27,45.55,5.95,46.83,17.61Z"/><text class="cls-1" transform="translate(31.4 59.16)"><tspan x="0" y="0">学研教室本郷中央教室</tspan></text></g></svg>