<?xml version="1.0" encoding="UTF-8"?><svg id="_レイヤー_2" xmlns="http://www.w3.org/2000/svg" viewBox="0 0 396.55 192.37"><defs><style>.cls-1{fill:#fff;}.cls-2{opacity:.51;}.cls-3{fill:#63a6db;}.cls-4{font-family:HeiseiMaruGoStd-W4-90ms-RKSJ-H, 'Heisei Maru Gothic Std';font-size:32.39px;}</style></defs><g id="_レイヤー_1-2"><g class="cls-2"><path class="cls-3" d="M396.42,105.37c1.81,21.37-15.11,40.26-37.78,42.18-1.71,.15-3.41,.19-5.08,.14-1.39,16.4-20.1,30.61-44.07,32.64-14.9,1.26-28.59-2.46-37.8-9.28-6.54,8.08-18.35,14.03-32.23,15.21-13.66,1.16-26.11-2.59-33.94-9.25-7.96,8.07-20.66,13.87-35.32,15.11-21.3,1.8-40.11-6.57-46.94-19.63-5.63,2.79-12.24,4.68-19.42,5.29-22.09,1.87-41.04-9.07-42.35-24.45-.11-1.32-.09-2.62,.06-3.9-.65,.08-1.3,.15-1.96,.21-22.68,1.92-42.53-13.85-44.34-35.22-1.81-21.37,15.11-40.26,37.78-42.18,1.77-.15,3.53-.19,5.27-.13-.01-.1-.03-.2-.03-.31-1.52-18,18.21-34.37,44.08-36.56,14.9-1.26,28.59,2.46,37.8,9.28,6.54-8.08,18.35-14.04,32.23-15.21,13.66-1.16,26.11,2.59,33.94,9.25,7.97-8.07,20.66-13.87,35.32-15.11,21.3-1.8,40.11,6.57,46.95,19.63,5.62-2.8,12.24-4.68,19.41-5.29,22.09-1.87,41.05,9.07,42.35,24.45,.24,2.82-.14,5.59-1.03,8.25,.92-.14,1.84-.25,2.78-.33,22.68-1.92,42.53,13.85,44.34,35.22Z"/><g><path class="cls-1" d="M384.31,85.19c1.81,21.37-15.11,40.26-37.78,42.18-1.71,.15-3.41,.19-5.08,.14-1.39,16.4-20.1,30.61-44.07,32.64-14.9,1.26-28.59-2.46-37.8-9.28-6.54,8.08-18.35,14.03-32.23,15.21-13.66,1.16-26.11-2.59-33.95-9.25-7.96,8.07-20.66,13.87-35.32,15.11-21.3,1.8-40.11-6.57-46.94-19.63-5.63,2.79-12.24,4.68-19.42,5.29-22.09,1.87-41.04-9.08-42.35-24.45-.11-1.32-.09-2.62,.06-3.9-.65,.08-1.3,.15-1.96,.21-22.68,1.92-42.53-13.85-44.34-35.22-1.81-21.37,15.11-40.26,37.78-42.18,1.77-.15,3.53-.19,5.27-.13-.01-.1-.03-.2-.03-.31-1.52-18,18.21-34.37,44.08-36.56,14.9-1.26,28.59,2.46,37.8,9.28,6.54-8.08,18.35-14.04,32.23-15.21,13.66-1.16,26.11,2.59,33.94,9.25,7.97-8.07,20.66-13.87,35.32-15.11,21.3-1.8,40.11,6.57,46.95,19.63,5.62-2.8,12.24-4.68,19.41-5.29,22.09-1.87,41.05,9.07,42.35,24.45,.24,2.82-.14,5.59-1.03,8.25,.92-.14,1.84-.25,2.78-.33,22.68-1.92,42.53,13.85,44.34,35.22Z"/><path d="M152.26,175.18c-18.46,0-34.67-7.23-42.34-19.02-5.51,2.36-11.66,3.88-17.95,4.41-1.71,.15-3.41,.22-5.09,.22-21.47,0-39.16-11.63-40.5-27.4-.02-.29-.04-.57-.06-.86-.86,.05-1.72,.07-2.57,.07-22.6,0-41.77-16.4-43.61-38.13-1.95-22.99,16.23-43.36,40.52-45.42,.8-.07,1.61-.12,2.41-.14,.23-8.67,4.74-17.04,12.93-23.83,8.79-7.29,20.86-11.92,33.97-13.03,14.03-1.19,27.55,1.82,37.57,8.29,7.5-7.86,19.41-13.11,32.46-14.22,12.83-1.09,25.31,1.99,34.01,8.28,8.78-7.86,21.47-12.98,35.26-14.14,20.9-1.77,39.9,5.7,48.41,18.76,5.5-2.36,11.65-3.88,17.95-4.41,23.71-2.01,44.15,10.19,45.59,27.18,.14,1.69,.1,3.4-.14,5.09,23.72-1.33,44.31,15.5,46.22,38.05h0c1.95,22.99-16.23,43.36-40.52,45.42-.91,.08-1.82,.13-2.73,.15-3.23,16.81-22.56,30.61-46.43,32.63-14.04,1.19-27.55-1.82-37.57-8.29-7.5,7.86-19.4,13.11-32.46,14.22-12.83,1.09-25.31-1.99-34.01-8.28-8.78,7.86-21.46,12.97-35.26,14.14-2.04,.17-4.07,.26-6.06,.26Zm-41.13-25.88c1.08,0,2.13,.59,2.66,1.61,6.42,12.27,24.52,19.69,44.03,18.03,13.45-1.14,25.64-6.33,33.44-14.23,1.1-1.12,2.88-1.2,4.08-.18,7.52,6.4,19.39,9.59,31.75,8.54,12.59-1.07,23.86-6.34,30.15-14.11,1.01-1.25,2.82-1.48,4.12-.52,9.04,6.69,22.07,9.86,35.77,8.7,22.28-1.89,40.05-14.74,41.34-29.91,.14-1.59,1.5-2.78,3.08-2.74,1.57,.05,3.16,0,4.73-.13,20.99-1.78,36.71-19.24,35.05-38.93-1.67-19.69-20.11-34.27-41.09-32.49-.81,.07-1.66,.17-2.6,.31-1.03,.15-2.07-.24-2.74-1.05-.67-.8-.87-1.89-.54-2.88,.79-2.33,1.09-4.7,.89-7.04-1.16-13.7-18.7-23.43-39.1-21.71-6.55,.55-12.89,2.28-18.33,4.98-1.46,.73-3.24,.15-3.99-1.3-6.42-12.27-24.52-19.69-44.03-18.04-13.44,1.14-25.63,6.33-33.44,14.23-1.1,1.12-2.88,1.19-4.08,.18-7.52-6.4-19.39-9.59-31.75-8.54-12.59,1.07-23.86,6.34-30.15,14.11-1.01,1.25-2.83,1.48-4.12,.52-9.04-6.69-22.08-9.87-35.77-8.71-11.9,1.01-22.79,5.15-30.65,11.67-7.55,6.26-11.35,13.95-10.69,21.65l.02,.2c.11,.87-.17,1.75-.76,2.39-.59,.65-1.45,1.01-2.32,.97-1.62-.06-3.28-.02-4.91,.12-20.99,1.78-36.71,19.24-35.05,38.93,1.67,19.69,20.1,34.26,41.09,32.49,.62-.05,1.23-.12,1.84-.2,.92-.12,1.83,.2,2.48,.84,.65,.65,.98,1.56,.87,2.48-.13,1.1-.14,2.21-.05,3.31,1.16,13.7,18.7,23.44,39.1,21.71,6.54-.55,12.88-2.28,18.34-4.98,.43-.21,.88-.31,1.33-.31Z"/></g></g><text class="cls-4" transform="translate(31.88 99.91)"><tspan x="0" y="0">学研教室本郷中央教室</tspan></text></g></svg>